<svg xmlns="http://www.w3.org/2000/svg" width="512" height="512" viewBox="0 0 512 512"><defs><linearGradient id="bg" x1="0%" x2="100%" y1="0%" y2="100%"><stop offset="0%" style="stop-color:#1e40af"/><stop offset="100%" style="stop-color:#3b82f6"/></linearGradient></defs><rect width="512" height="512" fill="url(#bg)" rx="80" ry="80"/><g fill="none" stroke="#fff" stroke-linecap="round" stroke-linejoin="round" stroke-width="16"><path d="M256 120 C180 120 140 180 140 240 C140 280 160 320 180 340 C160 360 150 400 180 420 C200 440 240 440 256 420"/><path d="M256 120 C332 120 372 180 372 240 C372 280 352 320 332 340 C352 360 362 400 332 420 C312 440 272 440 256 420"/><line x1="256" x2="256" y1="140" y2="400"/><path d="M180 200 Q220 220 200 260"/><path d="M170 280 Q210 300 190 340"/><path d="M332 200 Q292 220 312 260"/><path d="M342 280 Q302 300 322 340"/></g><path fill="none" stroke="#fff" stroke-linecap="round" stroke-linejoin="round" stroke-width="12" d="M160 380 L200 380 L220 340 L240 420 L260 360 L280 400 L300 380 L352 380" opacity=".8"/></svg>